<svg xmlns="http://www.w3.org/2000/svg" viewBox="0 0 371.35 58.48"><defs><style>.cls-1{fill:#fff;}.cls-2{fill:#f70000;}</style></defs><g id="Layer_2" data-name="Layer 2"><g id="Layer_1-2" data-name="Layer 1"><path class="cls-1" d="M69.83,58.48H52.63l1.84-4.69c4-10.25,2.59-11.44-13.62-11.44H23.43L17.2,58.48H0L22.39,0H68.71C88.17,0,91.24,4.34,85.86,17.93L85,20c-3.61,9.13-8.17,13.69-16.36,15.4l-.14.35c7.87,1.28,8.85,3.6,4.8,13.86ZM50.11,29.65c12,0,13.92-1.12,16.56-7.84l.41-1C69.68,14.13,68.56,13,56.6,13H34.75L28.33,29.65Z"/><path class="cls-1" d="M143.64,58.48H79.4L102.62,0h63.87l-5.31,13H114.8l-4,10h43.88l-5,12.21H105.9l-4,10h47.16Z"/><path class="cls-1" d="M241.52,30.25c-10.37,24.48-16,28.23-49.29,28.23H151.81L175.79,0h40.84C249.56,0,253,3.21,242.25,28.53ZM196.39,45c19.83,0,22.27-1.71,28-15.26l.43-1c5.88-14,4.73-15.35-15.21-15.35H187.83L174.75,45Z"/><path class="cls-1" d="M280.66,36h-31l5.43-12.78h31.11Z"/><path class="cls-2" d="M346.3,58.48H277l5.64-13,60-32.77.08-.17H298L303.4,0h68l-6,13.44L305.06,45.77l-.07.17h46.89Z"/></g></g></svg>